<?xml version="1.0" encoding="UTF-8" standalone="no"?>
<!-- Created with Inkscape (http://www.inkscape.org/) -->

<svg
   xmlns:dc="http://purl.org/dc/elements/1.1/"
   xmlns:cc="http://creativecommons.org/ns#"
   xmlns:rdf="http://www.w3.org/1999/02/22-rdf-syntax-ns#"
   xmlns:svg="http://www.w3.org/2000/svg"
   xmlns="http://www.w3.org/2000/svg"
   xmlns:sodipodi="http://sodipodi.sourceforge.net/DTD/sodipodi-0.dtd"
   xmlns:inkscape="http://www.inkscape.org/namespaces/inkscape"
   width="1000"
   height="500"
   id="svg2"
   version="1.1"
   inkscape:version="0.48.4 r9939"
   sodipodi:docname="kerbin.svg">
  <defs
     id="defs4" />
  <sodipodi:namedview
     id="base"
     pagecolor="#ffffff"
     bordercolor="#666666"
     borderopacity="1.0"
     inkscape:pageopacity="0.0"
     inkscape:pageshadow="2"
     inkscape:zoom="0.98994949"
     inkscape:cx="464.21498"
     inkscape:cy="267.85258"
     inkscape:document-units="px"
     inkscape:current-layer="layer2"
     showgrid="true"
     showguides="false"
     inkscape:snap-global="false"
     inkscape:window-width="1920"
     inkscape:window-height="1032"
     inkscape:window-x="0"
     inkscape:window-y="0"
     inkscape:window-maximized="1">
    <inkscape:grid
       type="xygrid"
       id="grid3784"
       empspacing="5"
       visible="true"
       enabled="true"
       snapvisiblegridlinesonly="true" />
  </sodipodi:namedview>
  <metadata
     id="metadata7">
    <rdf:RDF>
      <cc:Work
         rdf:about="">
        <dc:format>image/svg+xml</dc:format>
        <dc:type
           rdf:resource="http://purl.org/dc/dcmitype/StillImage" />
        <dc:title></dc:title>
      </cc:Work>
    </rdf:RDF>
  </metadata>
  <g
     inkscape:groupmode="layer"
     id="layer2"
     inkscape:label="Layer">
    <path
       style="fill:#000000;stroke:#000000;stroke-width:2;stroke-linecap:butt;stroke-linejoin:miter;stroke-opacity:1;fill-opacity:0.04000000000000000;stroke-miterlimit:4;stroke-dasharray:none"
       d="M 510.71875 40 L 504.65625 42.5 L 487.5 41.0625 L 471.0625 41.0625 L 465.53125 43.5625 L 464.28125 45.53125 L 466.78125 48.40625 L 464.09375 51.96875 L 451.4375 51.78125 L 449.28125 47.15625 L 443.21875 50 L 425.53125 50.34375 L 415.53125 48.03125 L 408.40625 48.40625 L 405.53125 50.71875 L 408.75 53.5625 L 407.5 55.1875 L 409.28125 59.65625 L 401.59375 61.4375 L 393.21875 55 L 394.09375 51.59375 L 381.78125 49.46875 L 377.15625 51.25 L 361.0625 48.03125 L 353.9375 49.46875 L 330.53125 43.9375 L 316.59375 45.1875 L 312.84375 47.6875 L 301.96875 46.4375 L 291.78125 48.21875 L 283.75 49.8125 L 278.40625 51.96875 L 278.5625 54.46875 L 284.09375 58.21875 L 291.59375 58.21875 L 290.90625 60.34375 L 294.09375 63.21875 L 296.96875 63.21875 L 298.75 66.59375 L 302.15625 66.59375 L 301.59375 69.09375 L 305.34375 72.5 L 311.96875 73.5625 L 312.5 79.28125 L 310.1875 81.96875 L 305.71875 79.8125 L 302.5 83.21875 L 308.40625 89.28125 L 311.96875 87.5 L 315.90625 90 L 321.4375 86.25 L 326.25 86.78125 L 327.3125 91.25 L 330.53125 90.34375 L 333.75 87.84375 L 340.53125 88.03125 L 357.84375 86.96875 L 363.9375 90.90625 L 362.84375 94.09375 L 367.6875 98.9375 L 372.5 99.09375 L 378.21875 102.84375 L 386.4375 105.34375 L 391.59375 103.75 L 395.1875 106.25 L 401.59375 105.53125 L 410.1875 110.53125 L 416.59375 112.84375 L 420.1875 117.3125 L 426.96875 119.8125 L 430.71875 124.65625 L 430.1875 131.0625 L 438.5625 137.5 L 441.4375 140.34375 L 441.0625 146.25 L 443.40625 146.96875 L 444.28125 150.34375 L 445.71875 151.59375 L 446.59375 156.0625 L 445.53125 161.4375 L 441.4375 165.1875 L 441.0625 168.9375 L 446.96875 171.59375 L 442.84375 172.84375 L 440.53125 174.65625 L 437.15625 172.84375 L 429.09375 172.84375 L 425.1875 176.96875 L 426.4375 181.0625 L 427.84375 182.3125 L 431.0625 180.90625 L 435.1875 182.5 L 436.4375 178.9375 L 439.8125 178.9375 L 444.46875 177.5 L 448.75 178.40625 L 450 181.0625 L 445 184.28125 L 443.21875 186.4375 L 433.75 186.78125 L 433.40625 197.6875 L 428.75 198.75 L 428.21875 202.3125 L 421.0625 201.78125 L 418.75 203.21875 L 410.90625 199.46875 L 405.90625 198.21875 L 400.34375 198.03125 L 394.8125 193.40625 L 396.96875 193.21875 L 395.90625 191.0625 L 393.40625 190.71875 L 394.8125 186.59375 L 391.4375 184.46875 L 389.8125 187.3125 L 388.5625 191.59375 L 392.15625 194.46875 L 394.28125 198.03125 L 392.3125 201.59375 L 395.34375 203.75 L 391.59375 205.34375 L 388.03125 203.03125 L 385 205.34375 L 382.15625 209.8125 L 384.8125 210.1875 L 389.65625 207.15625 L 392.6875 206.78125 L 394.46875 210 L 391.78125 210.90625 L 391.59375 215.53125 L 393.75 217.5 L 395.53125 215.90625 L 402.6875 221.96875 L 403.5625 226.4375 L 406.0625 226.59375 L 407.6875 228.9375 L 406.4375 229.8125 L 406.25 239.65625 L 408.21875 240.1875 L 409.46875 246.0625 L 415.90625 246.78125 L 416.25 251.0625 L 420.71875 254.09375 L 421.4375 257.6875 L 424.46875 257.15625 L 423.75 261.96875 L 428.40625 265.71875 L 428.5625 277.84375 L 435.53125 281.96875 L 440.1875 281.96875 L 450.34375 278.5625 L 455.53125 277.5 L 456.0625 283.40625 L 458.21875 285 L 464.46875 280.34375 L 464.65625 275.53125 L 466.59375 269.65625 L 467.5 270 L 461.78125 266.0625 L 462.5 259.28125 L 461.96875 253.5625 L 466.59375 248.40625 L 469.09375 246.25 L 473.75 248.75 L 468.75 253.75 L 471.0625 255.90625 L 471.4375 259.8125 L 476.4375 261.4375 L 475.1875 269.8125 L 479.28125 272.84375 L 483.40625 270.53125 L 480.71875 266.59375 L 481.4375 263.21875 L 484.8125 263.40625 L 490.53125 260 L 491.4375 256.59375 L 498.21875 255.34375 L 508.40625 248.03125 L 515.34375 250.1875 L 518.03125 255.1875 L 528.75 254.65625 L 530.34375 260.90625 L 538.03125 259.28125 L 539.46875 255.90625 L 546.96875 256.4375 L 547.3125 251.25 L 541.59375 248.40625 L 541.59375 243.75 L 544.09375 243.40625 L 545.90625 240.1875 L 542.84375 236.4375 L 546.78125 235.34375 L 547.15625 230.34375 L 544.8125 229.8125 L 544.46875 224.8125 L 547.3125 221.78125 L 547.15625 216.4375 L 550 214.46875 L 551.78125 211.59375 L 547.6875 210.71875 L 549.28125 204.09375 L 546.4375 200.90625 L 548.21875 193.03125 L 550.1875 193.21875 L 551.25 197.15625 L 553.9375 197.5 L 554.28125 193.21875 L 558.03125 193.03125 L 560.53125 195.90625 L 565.71875 192.6875 L 567.15625 190 L 570.53125 190.71875 L 576.0625 187.6875 L 575.53125 184.46875 L 581.0625 184.28125 L 581.4375 180.90625 L 582.3125 178.5625 L 591.0625 177.3125 L 592.3125 174.8125 L 598.40625 175.53125 L 602.5 170.1875 L 612.3125 169.65625 L 617.15625 173.5625 L 618.5625 171.4375 L 616.59375 166.25 L 619.28125 165.1875 L 623.21875 168.40625 L 631.0625 168.03125 L 631.96875 165.71875 L 638.21875 165.53125 L 639.28125 162.3125 L 646.78125 161.59375 L 650.1875 165.1875 L 652.3125 160.1875 L 659.46875 158.03125 L 658.75 154.28125 L 660.53125 148.03125 L 657.15625 145.34375 L 654.09375 140.53125 L 648.9375 139.46875 L 647.84375 136.4375 L 651.96875 134.28125 L 651.59375 126.25 L 655.90625 126.96875 L 659.65625 130.53125 L 665.34375 129.65625 L 664.65625 125.1875 L 670.1875 125.90625 L 672.3125 122.84375 L 680.1875 121.4375 L 688.5625 125 L 688.5625 122.5 L 695.90625 120.34375 L 691.4375 117.15625 L 686.78125 117.3125 L 684.09375 115.53125 L 673.21875 115.1875 L 662.6875 113.03125 L 659.65625 108.21875 L 654.28125 107.6875 L 654.28125 104.8125 L 644.09375 101.4375 L 637.15625 98.75 L 634.46875 94.8125 L 629.46875 91.78125 L 612.6875 88.40625 L 607.3125 88.5625 L 605.90625 82.15625 L 609.65625 80.53125 L 608.9375 74.28125 L 613.21875 71.59375 L 606.78125 70.1875 L 603.40625 63.03125 L 597.6875 61.78125 L 589.65625 57.15625 L 584.65625 57.6875 L 576.96875 53.9375 L 561.59375 51.4375 L 557.84375 47.84375 L 550.34375 48.40625 L 544.46875 45.1875 L 537.6875 45.71875 L 528.75 43.75 L 530.34375 40.34375 L 510.71875 40 z M 531.90625 153.40625 L 532.40625 155.15625 L 530.53125 156.9375 L 534.4375 159.1875 L 536.3125 159.3125 L 535.4375 163.25 L 537.34375 164.375 L 540.5 163.75 L 544.28125 166.65625 L 544.65625 167.65625 L 546.4375 169.8125 L 544.15625 170.9375 L 539.34375 169.5625 L 537.21875 171.8125 L 532.90625 169.1875 L 524.34375 169.3125 L 523.96875 163.375 L 523.0625 163.25 L 517.90625 164 L 515.75 161.34375 L 519.53125 160.09375 L 520.65625 158.1875 L 524.84375 156.28125 L 526.46875 153.65625 L 531.90625 153.40625 z "
       id="path3838" />
    <path
       style="fill:#000000;stroke:#000000;stroke-width:2;stroke-linecap:butt;stroke-linejoin:miter;stroke-opacity:1;fill-opacity:0.04000000000000000;opacity:1;stroke-miterlimit:4;stroke-dasharray:none"
       d="M 199.09375 77.3125 L 188.21875 79.09375 L 183.40625 82.15625 L 176.25 81.59375 L 171.96875 85.1875 L 171.96875 91.0625 L 176.78125 92.3125 L 177.3125 95.34375 L 182.15625 94.46875 L 188.9375 95.90625 L 193.40625 100.1875 L 199.65625 103.75 L 204.8125 104.09375 L 205 110.53125 L 201.78125 113.03125 L 201.59375 116.4375 L 196.59375 121.78125 L 188.75 124.8125 L 191.4375 128.03125 L 192.15625 132.84375 L 200.90625 133.75 L 201.59375 139.28125 L 194.46875 145.71875 L 195.1875 149.28125 L 191.59375 151.25 L 182.84375 148.03125 L 174.8125 152.84375 L 178.40625 156.4375 L 181.59375 155.1875 L 186.0625 155.34375 L 187.6875 160.71875 L 186.25 169.8125 L 187.84375 171.96875 L 193.03125 173.21875 L 196.59375 179.09375 L 194.8125 184.8125 L 192.84375 184.09375 L 191.25 188.5625 L 194.28125 191.78125 L 195 199.28125 L 202.15625 206.0625 L 200.90625 210.90625 L 213.40625 216.4375 L 215.34375 222.6875 L 222.6875 220.53125 L 227.3125 217.3125 L 230.71875 219.65625 L 232.6875 223.5625 L 224.28125 225.71875 L 223.5625 230.1875 L 218.5625 229.28125 L 213.9375 232.84375 L 210.34375 234.65625 L 207.15625 236.4375 L 206.78125 238.75 L 202.3125 239.28125 L 200.34375 242.3125 L 201.78125 243.9375 L 201.4375 249.46875 L 204.46875 250.34375 L 204.28125 253.40625 L 206.25 256.59375 L 197.5 256.4375 L 193.03125 257.84375 L 185.34375 254.28125 L 180.34375 249.09375 L 178.03125 243.21875 L 174.09375 239.65625 L 165.71875 238.9375 L 158.40625 234.65625 L 148.5625 234.46875 L 145.34375 237.6875 L 141.78125 237.84375 L 142.3125 245.71875 L 144.28125 248.5625 L 141.96875 249.65625 L 141.96875 255.1875 L 136.25 255.1875 L 134.8125 257.15625 L 138.40625 261.78125 L 137.3125 263.21875 L 136.96875 267.3125 L 141.78125 272.6875 L 141.25 276.0625 L 135.1875 280 L 130 280.34375 L 126.96875 277.6875 L 122.6875 275.1875 L 120.90625 277.15625 L 102.84375 287.5 L 97.6875 287.84375 L 97.5 291.25 L 101.78125 294.8125 C 101.78125 294.8125 103.02678 300 102.3125 300 C 101.59821 300 102.53125 304.03125 102.53125 304.03125 L 108.09375 304.53125 L 108.09375 309.09375 L 101 307.0625 L 100.5 309.59375 L 101.53125 313.625 L 109.09375 313.125 L 113.65625 317.15625 L 110.625 319.1875 L 102.03125 319.6875 L 95.46875 316.65625 L 90.90625 311.09375 L 72.71875 310.59375 L 69.6875 304.03125 L 63.625 298.46875 L 63.625 293.9375 L 65.65625 288.875 L 60.59375 284.84375 L 56.5625 286.84375 L 54.03125 291.40625 L 57.59375 295.4375 L 48.5 294.9375 L 39.40625 291.40625 L 31.8125 289.875 L 27.28125 291.90625 L 29.28125 295.4375 L 27.78125 303.53125 L 20.71875 302.5 L 23.75 296.96875 L 24.25 294.4375 L 18.1875 290.40625 L 12.625 292.40625 L 11.625 295.9375 L 7.5625 299.5 L 0.5 297.46875 L -0.1875 466.4375 L 6.78125 466.25 L 8.40625 464.09375 L 30 465.90625 L 32.3125 463.5625 L 43.5625 463.03125 L 46.0625 464.8125 L 48.75 460.71875 L 53.40625 464.28125 L 63.21875 461.25 L 66.4375 455.90625 L 77.6875 458.21875 L 80.34375 455.53125 L 76.78125 453.75 L 75.34375 450.53125 L 99.65625 450 C 99.65625 450 95.370536 456.0625 94.65625 456.0625 C 93.941965 456.0625 98.40625 459.8125 98.40625 459.8125 L 112.84375 459.09375 L 131.4375 453.5625 L 145.53125 455.90625 L 152.15625 453.9375 L 158.03125 457.3125 L 179.8125 456.96875 L 207.84375 456.0625 L 260.34375 457.15625 L 265.1875 461.78125 L 289.65625 465.53125 L 307.15625 460.90625 L 317.6875 463.9375 L 323.9375 461.78125 L 334.09375 462.5 L 336.96875 458.9375 L 347.5 458.5625 L 348.03125 456.4375 L 341.25 455.34375 L 330 455 L 328.75 451.96875 L 335.90625 452.15625 L 337.15625 450.53125 L 356.78125 441.4375 L 361.59375 441.96875 L 361.96875 438.03125 L 355.1875 436.4375 L 355.53125 430 L 351.96875 428.03125 L 355.71875 426.0625 L 354.8125 423.5625 C 354.8125 423.5625 348.74107 422.3125 347.3125 422.3125 C 345.88393 422.3125 346.4375 418.5625 346.4375 418.5625 L 338.03125 418.03125 L 338.03125 413.75 L 340.1875 413.5625 L 346.96875 411.25 L 350.1875 408.03125 L 355.34375 406.4375 L 361.25 410 L 366.25 408.21875 L 366.25 405.90625 L 371.96875 406.96875 L 374.65625 404.09375 L 377.84375 406.78125 L 381.96875 404.8125 L 376.78125 401.96875 L 387.15625 404.09375 L 391.25 402.6875 L 391.25 393.21875 L 389.09375 390.1875 L 393.03125 388.5625 L 389.65625 386.96875 L 388.03125 374.65625 L 392.3125 371.0625 L 380.53125 355.90625 L 377.15625 353.03125 L 374.8125 343.21875 L 383.5625 340.53125 L 384.8125 335.53125 L 392.6875 334.28125 L 393.75 331.59375 L 385.71875 331.0625 L 387.15625 327.84375 L 397.15625 326.96875 L 396.96875 322.84375 L 405.1875 316.78125 L 416.59375 314.46875 L 425.71875 316.96875 L 428.75 311.0625 L 434.09375 310.53125 L 440.90625 302.3125 L 446.25 298.03125 L 450.34375 293.40625 L 448.40625 289.28125 L 444.28125 290 L 443.5625 293.9375 L 436.0625 291.96875 L 436.59375 295.34375 L 434.09375 298.5625 L 426.25 296.0625 L 424.65625 290.90625 L 425.71875 286.4375 L 418.03125 280.34375 L 413.75 281.4375 L 404.8125 276.59375 L 398.03125 280.1875 L 391.4375 275.71875 L 385.71875 276.4375 L 387.15625 282.15625 L 381.59375 284.46875 L 376.78125 280.90625 L 381.78125 275.34375 L 384.46875 273.40625 L 384.09375 264.65625 L 387.5 263.9375 L 386.96875 258.75 L 389.28125 255.1875 L 385.71875 254.8125 L 382.3125 251.4375 L 378.75 250.1875 L 381.96875 248.21875 L 381.96875 240.34375 L 385.34375 236.4375 L 383.21875 233.40625 L 385.1875 230.71875 L 382.84375 229.09375 L 383.9375 225.34375 L 381.4375 220.1875 L 376.4375 218.40625 L 372.84375 220.53125 L 369.28125 217.5 L 370 213.9375 L 365 211.59375 L 361.78125 213.21875 L 358.03125 210.53125 L 355.71875 205.71875 L 355.34375 202.15625 L 349.65625 198.03125 L 345 192.6875 L 339.65625 193.75 L 337.15625 196.59375 L 332.5 200 L 327.84375 197.84375 L 322.15625 204.8125 L 321.59375 213.9375 L 329.8125 219.46875 L 327.3125 224.09375 L 323.03125 223.03125 L 321.59375 225.1875 L 317.3125 225.90625 L 312.15625 228.5625 L 311.25 234.46875 L 305.53125 232.15625 L 301.25 234.09375 L 302.6875 238.75 L 298.75 244.65625 L 293.5625 246.0625 L 294.09375 250.71875 L 289.46875 255.34375 L 288.9375 259.09375 L 279.09375 263.03125 L 279.28125 268.21875 L 272.84375 267.3125 L 270.34375 269.28125 L 267.5 268.40625 L 265.53125 271.96875 L 269.65625 276.25 L 258.75 278.03125 L 253.03125 273.75 L 251.25 267.3125 L 253.03125 260.90625 L 252.6875 250.90625 L 253.75 244.28125 L 256.25 243.75 L 257.3125 239.46875 L 256.25 233.75 L 259.28125 232.5 L 260.1875 230.34375 L 256.0625 229.46875 L 256.96875 225.90625 L 253.5625 223.40625 L 242.3125 223.9375 L 234.65625 219.8125 L 235 216.59375 L 231.96875 213.21875 L 235 210.1875 L 233.75 207.3125 L 240.90625 202.5 L 241.96875 198.03125 L 253.40625 188.75 L 260.90625 193.03125 L 263.21875 191.78125 L 261.59375 187.15625 L 267.3125 182.84375 L 264.8125 181.59375 L 263.5625 179.09375 L 267.3125 178.5625 L 267.6875 173.40625 L 263.75 170 L 258.5625 172.15625 L 256.4375 170.1875 L 251.78125 170.53125 L 251.4375 177.6875 L 245.34375 177.84375 L 240.34375 181.4375 L 239.8125 186.4375 L 237.84375 186.59375 L 236.59375 191.59375 L 228.75 188.5625 L 226.59375 183.75 L 220 183.03125 L 219.46875 179.09375 L 215 176.96875 L 214.65625 172.84375 L 217.3125 171.96875 L 217.15625 159.09375 L 220.1875 157.5 L 220.53125 151.25 L 223.75 151.96875 L 231.0625 149.46875 L 235.1875 153.03125 L 239.09375 150 L 249.65625 151.59375 L 249.8125 148.5625 L 255.71875 147.84375 L 258.40625 151.78125 L 264.65625 155.1875 L 273.40625 154.46875 L 278.03125 149.65625 L 274.8125 148.40625 L 275 145.34375 L 279.8125 142.84375 L 280.1875 134.09375 L 277.84375 130 L 273.21875 125 L 264.28125 120.53125 L 261.0625 114.65625 L 262.84375 114.09375 L 261.96875 108.03125 L 256.96875 104.46875 L 256.96875 99.28125 L 252.84375 96.96875 L 247.5 98.75 L 240 93.9375 L 239.8125 96.25 L 235.53125 96.59375 L 233.5625 90.1875 L 229.65625 86.59375 L 224.28125 81.59375 L 215 81.59375 L 213.40625 83.75 L 208.21875 83.21875 L 205.71875 80.90625 L 199.09375 77.3125 z M 167.375 362.625 L 175.84375 362.875 L 177.34375 367.03125 L 182.15625 369.5625 L 182.15625 379.28125 L 179.125 379.28125 L 173.0625 382.8125 L 166.625 380.15625 L 167 375.375 L 162.4375 375.5 L 161.6875 380.4375 L 164.34375 382.4375 L 164.21875 385.71875 L 167 386.21875 L 164.84375 390.78125 L 157.90625 392.28125 L 156.5 395.3125 L 148.8125 393.5625 L 142.75 396.09375 L 136.5625 398.34375 L 130.375 399.75 L 130.375 403.15625 L 126.09375 402.40625 L 121.40625 406.5625 C 121.40625 406.5625 117.75635 405.31377 117.125 405.1875 C 116.49366 405.06123 113.19511 409.33994 112.4375 409.71875 C 111.67988 410.09755 104.875 409.09375 104.875 409.09375 L 100.8125 411.875 L 92.5 411.34375 L 92.625 405.03125 C 92.625 405.03125 87.07519 403.66006 85.8125 403.28125 L 87.1875 399.375 L 97.65625 393.0625 L 101.21875 394.3125 L 102.96875 390.15625 L 108.15625 386.625 L 105 383.46875 L 106.5 381.4375 L 110.5625 384.96875 L 112.6875 382.5625 C 112.6875 382.5625 117.74365 384.71875 118.375 384.71875 C 119.00634 384.71875 126.59375 381.5625 126.59375 381.5625 L 133.78125 384.71875 L 142.75 381.5625 L 140.46875 381.0625 L 139.59375 377.90625 L 147.8125 371.09375 L 153.46875 371.21875 L 153.09375 372.84375 L 159.40625 376.5 L 159.28125 368.6875 L 163.0625 365.53125 L 167.375 362.625 z M 50.15625 382.84375 L 53.1875 384.8125 L 52.125 386.59375 L 56.40625 389.28125 L 64.4375 390.34375 L 65.5 391.96875 L 73 395.1875 L 74.625 398.75 L 69.78125 399.09375 L 66.03125 403.75 L 56.75 403.5625 L 48.1875 401.0625 L 51.21875 396.78125 L 47.46875 394.09375 L 48.53125 390.53125 L 42.3125 386.59375 L 50.15625 382.84375 z "
       id="path3814" />
    <path
       style="fill:none;stroke:#000000;stroke-width:2;stroke-linecap:butt;stroke-linejoin:miter;stroke-opacity:1;stroke-miterlimit:4;stroke-dasharray:none"
       d="m 21.428571,371.25 3.035715,1.96429 -0.714286,3.39285 -3.035714,-0.89285 z"
       id="path3816"
       inkscape:connector-curvature="0" />
    <path
       style="fill:none;stroke:#000000;stroke-width:2;stroke-linecap:butt;stroke-linejoin:miter;stroke-opacity:1;stroke-miterlimit:4;stroke-dasharray:none"
       d="m 50,382.85714 3.035714,1.96429 -1.071428,1.78571 4.285714,2.67857 8.035714,1.07143 1.071429,1.60715 7.5,3.21428 1.607143,3.57143 -4.821429,0.35714 -3.75,4.64286 -9.285714,-0.17857 -8.571429,-2.5 3.035715,-4.28572 -3.75,-2.67857 1.071428,-3.57143 -6.238839,-3.92857 z"
       id="path3818"
       inkscape:connector-curvature="0"
       sodipodi:nodetypes="ccccccccccccccccc" />
    <path
       style="fill:none;stroke:#000000;stroke-width:2;stroke-linecap:butt;stroke-linejoin:miter;stroke-opacity:1;stroke-miterlimit:4;stroke-dasharray:none"
       d="m 85.989236,403.27789 c 1.26269,0.37881 6.818529,1.76777 6.818529,1.76777 l -0.126269,6.31345 8.333754,0.50508 4.04061,-2.77792 c 0,0 6.81853,1.01015 7.57615,0.63135 0.75761,-0.37881 4.04061,-4.67196 4.67195,-4.54569 0.63135,0.12627 4.29315,1.38896 4.29315,1.38896 l 4.67196,-4.16688 4.29315,0.75761 0,-3.40926 6.18718,-1.38896 6.18719,-2.27284 6.06091,-2.52538 7.70241,1.76776 1.38896,-3.03046 6.9448,-1.51522 2.14658,-4.54569 -2.77792,-0.50508 0.12627,-3.28299 -2.65165,-2.02031 0.75761,-4.92449 4.54569,-0.12627 -0.37881,4.79822 6.43972,2.65165 6.06092,-3.53553 3.03045,0 0,-9.72272 -4.79822,-2.52538 -1.51523,-4.16688 -8.46003,-0.25254 -4.29314,2.90419 -3.78808,3.15673 0.12627,7.82868 -6.31345,-3.6618 0.37881,-1.6415 -5.68211,-0.12627 -8.20749,6.81853 0.88388,3.15673 2.27285,0.50507 -8.96511,3.15673 -7.19734,-3.15673 c 0,0 -7.57614,3.15673 -8.20748,3.15673 -0.63135,0 -5.68211,-2.14657 -5.68211,-2.14657 l -2.14658,2.39911 -4.04061,-3.53554 -1.51523,2.02031 3.15673,3.15673 -5.17703,3.53553 -1.76777,4.16688 -3.535532,-1.26269 -10.480333,6.31345 z"
       id="path3820"
       inkscape:connector-curvature="0" />
    <path
       style="fill:#000000;stroke:#000000;stroke-width:2;stroke-linecap:butt;stroke-linejoin:miter;stroke-opacity:1;fill-opacity:0.04000000000000000;stroke-miterlimit:4;stroke-dasharray:none"
       d="m -0.37880721,238.24422 3.03045761,-2.90419 0.1262691,-4.41941 4.9244937,-2.65166 0.6313453,-3.40926 -3.661803,-1.6415 3.4092649,-2.77792 2.7779196,-6.06091 5.934646,-1.13642 6.313454,-3.283 -0.378808,-3.15673 3.030458,-2.27284 -3.282996,-3.40926 -0.252538,-6.81853 -5.050763,-7.32361 -4.419417,-1.01015 0.252538,-5.42957 -2.399112,-0.25254 0,-3.283 3.661803,-2.0203 4.293148,-0.50508 0.126269,-6.81853 2.020305,-1.26269 -2.020305,-3.40926 -0.252538,-3.283 -3.788072,-0.88388 -7.0710679,-3.15673 0.5050763,-2.14657 -8.33375854,-2.77792"
       id="path3822"
       inkscape:connector-curvature="0" />
    <path
       style="fill:none;stroke:#000000;stroke-width:2;stroke-linecap:butt;stroke-linejoin:miter;stroke-opacity:1;stroke-miterlimit:4;stroke-dasharray:none"
       d="m 523.13275,163.24039 -5.17703,0.75762 -2.14658,-2.65165 3.78808,-1.26269 1.13642,-1.89404 4.16688,-1.89403 1.6415,-2.65165 5.42957,-0.25254 0.50507,1.76776 -1.89403,1.76777 3.91434,2.27284 1.89403,0.12627 -0.88388,3.91434 1.89403,1.13643 3.15673,-0.63135 3.78807,2.90419 0.37881,1.01015 1.76777,2.14658 -2.27285,1.13642 -4.79822,-1.38896 -2.14657,2.27284 -4.29315,-2.65165 -8.5863,0.12627 -0.37881,-5.93465 z"
       id="path3824"
       inkscape:connector-curvature="0" />
    <path
       style="fill:none;stroke:#000000;stroke-width:2;stroke-linecap:butt;stroke-linejoin:miter;stroke-opacity:1;stroke-miterlimit:4;stroke-dasharray:none"
       d="m 395.9798,293.36067 0.88388,2.0203 -0.69448,1.19956 0.12627,1.89404 3.59867,1.89403 1.19956,4.23002 -2.46225,3.53553 -5.1139,-1.13642 -3.91434,-2.02031 -0.0631,-4.35628 -4.67196,-1.13642 -0.82075,-5.24017 2.14658,-1.13642 z"
       id="path3826"
       inkscape:connector-curvature="0" />
    <path
       style="fill:none;stroke:#000000;stroke-width:2;stroke-linecap:butt;stroke-linejoin:miter;stroke-opacity:1;stroke-miterlimit:4;stroke-dasharray:none"
       d="m 152.84871,310.5964 3.03045,-1.26269 1.07329,1.45209 -1.89403,2.08344 -2.27285,-0.82075 z"
       id="path3828"
       inkscape:connector-curvature="0" />
    <path
       style="fill:#000000;stroke:#000000;stroke-width:2;stroke-linecap:butt;stroke-linejoin:miter;stroke-opacity:1;fill-opacity:0.04000000000000000;stroke-miterlimit:4;stroke-dasharray:none"
       d="m 123.88393,199.15178 1.74107,2.05358 -0.40179,2.58928 -3.70535,2.58929 c 0,0 -2.58929,-0.98215 -2.58929,-1.20536 0,-0.22321 0.0446,-2.63393 0.0446,-2.63393 z"
       id="path3830"
       inkscape:connector-curvature="0" />
    <path
       style="fill:#000000;stroke:#000000;stroke-width:2;stroke-linecap:butt;stroke-linejoin:miter;stroke-opacity:1;fill-opacity:0.04000000000000000;stroke-miterlimit:4;stroke-dasharray:none"
       d="m 198.46341,55.848552 5.05076,2.178141 3.44083,-1.673065 6.06092,1.262691 8.9651,-2.367546 -1.95717,-2.430679 -4.29315,-0.06314 -7.51301,2.462247 -6.66069,-1.38896 z"
       id="path3832"
       inkscape:connector-curvature="0" />
    <path
       style="fill:#000000;stroke:#000000;stroke-width:2;stroke-linecap:butt;stroke-linejoin:miter;stroke-opacity:1;fill-opacity:0.04000000000000000;stroke-miterlimit:4;stroke-dasharray:none"
       d="m 266.77497,48.998455 3.0936,0.157836 0.2841,1.988738 -2.55695,1.136421 z"
       id="path3834"
       inkscape:connector-curvature="0" />
    <path
       style="fill:none;stroke:#000000;stroke-width:2;stroke-linecap:butt;stroke-linejoin:miter;stroke-opacity:1;stroke-miterlimit:4;stroke-dasharray:none"
       d="m 319.59822,75.982142 5.66964,-1.160715 3.83928,2.366072 -0.40178,2.410714 -7.27679,-0.758929 -2.05357,-3.035714 z"
       id="path3836"
       inkscape:connector-curvature="0" />
    <path
       style="fill:#000000;stroke:#000000;stroke-width:2;stroke-linecap:butt;stroke-linejoin:miter;stroke-opacity:1;fill-opacity:0.04000000000000000;stroke-miterlimit:4;stroke-dasharray:none"
       d="M 791.96875 103.75 L 790.1875 106.4375 L 783.21875 106.4375 L 774.8125 111.25 L 768.75 109.28125 L 759.65625 109.28125 L 752.5 113.03125 L 753.9375 116.96875 L 752.15625 119.46875 L 748.5625 119.46875 L 746.0625 121.78125 L 751.4375 124.46875 L 751.25 126.59375 L 748.21875 127.84375 L 748.40625 131.25 L 751.25 133.03125 L 751.4375 139.46875 L 743.75 143.21875 L 743.5625 156.25 L 740.53125 159.8125 L 745.90625 162.3125 L 746.0625 168.40625 L 759.65625 167.3125 L 758.9375 175.1875 L 750.1875 176.78125 L 743.9375 182.84375 L 744.09375 196.4375 L 746.96875 205.34375 L 753.21875 215.1875 L 753.5625 218.75 L 749.09375 220.90625 L 748.40625 227.84375 L 742.5 230.1875 L 739.65625 232.3125 L 744.28125 234.28125 L 748.40625 232.84375 L 751.4375 236.78125 L 754.8125 235 L 760.34375 238.9375 L 765.34375 236.78125 L 773.75 240.90625 L 782.15625 245.90625 L 787.3125 243.75 L 788.75 248.40625 L 797.6875 248.03125 L 800 251.96875 L 809.65625 251.0625 L 813.9375 256.96875 L 821.0625 254.09375 L 829.65625 259.8125 L 831.4375 256.4375 L 828.03125 252.6875 L 832.15625 250.71875 L 831.59375 249.46875 L 834.65625 247.6875 L 836.0625 250.34375 L 840 251.0625 L 840.90625 257.3125 L 838.03125 261.25 L 831.59375 264.09375 L 828.75 267.6875 L 828.21875 274.09375 C 828.21875 274.09375 826.05804 275.71875 825.34375 275.71875 C 824.62947 275.71875 824.8125 279.65625 824.8125 279.65625 L 837.5 286.25 L 839.46875 293.03125 L 842.15625 293.21875 L 847.5 295.53125 L 851.0625 301.96875 L 854.09375 303.40625 L 851.4375 305.90625 L 845.71875 305.53125 L 844.8125 319.28125 L 843.9375 319.28125 L 842.5 323.21875 L 842.6875 329.8125 L 845 331.4375 L 843.40625 332.5 L 843.03125 337.84375 L 838.21875 339.46875 L 837.84375 344.09375 L 841.4375 347.84375 L 849.09375 347.15625 L 853.03125 351.59375 L 850.71875 352.84375 L 849.28125 355.34375 L 854.46875 360.90625 L 856.59375 360.53125 L 868.40625 362.3125 L 872.6875 362.5 L 880.71875 360 L 882.15625 357.84375 L 878.21875 358.03125 L 875.34375 353.75 L 876.4375 348.5625 L 873.21875 345.90625 L 871.25 341.4375 L 865.34375 341.4375 L 862.6875 339.65625 L 867.5 337.84375 L 866.96875 334.28125 L 870.90625 334.09375 L 870.90625 328.75 L 875 323.9375 L 871.25 320.34375 L 871.78125 311.59375 L 874.09375 309.09375 L 874.28125 299.46875 L 871.0625 300.34375 L 866.96875 298.21875 L 868.21875 294.65625 L 873.75 294.8125 L 878.75 292.5 L 886.59375 295.90625 L 888.75 293.40625 L 885.90625 288.03125 L 880.71875 283.5625 L 885.90625 279.8125 L 887.84375 276.78125 L 875.71875 274.28125 L 875.71875 269.8125 L 879.8125 268.9375 L 883.03125 264.65625 L 889.28125 264.46875 L 895.71875 264.65625 L 894.28125 268.5625 L 897.84375 272.6875 L 895.53125 274.8125 L 898.75 279.65625 L 899.65625 277.6875 L 898.03125 276.0625 L 897.84375 274.09375 L 911.96875 273.5625 L 912.84375 278.03125 L 910.21875 281.90625 L 908.9375 280.90625 L 901.0625 280.1875 L 900.71875 282.3125 L 897.15625 285.71875 L 896.59375 290.1875 L 895.1875 298.21875 L 898.21875 299.8125 L 897.6875 303.5625 L 894.8125 303.21875 L 892.84375 305.34375 L 897.15625 306.96875 L 897.84375 311.4375 L 902.84375 314.28125 L 900.90625 315.90625 L 899.65625 319.46875 L 897.3125 322.15625 L 892.15625 322.6875 L 894.8125 328.5625 L 890.90625 333.9375 L 887.15625 334.46875 L 884.28125 340.71875 L 887.5 341.0625 L 888.5625 346.0625 L 893.21875 345.1875 L 895.90625 348.9375 L 895.1875 353.75 L 897.6875 355 L 897.84375 357.3125 L 893.5625 359.28125 L 893.40625 362.6875 L 888.40625 363.5625 L 888.9375 367.5 L 882.5 370.1875 L 877.6875 369.65625 L 873.75 372.5 L 874.65625 373.75 L 870.90625 375.1875 L 866.0625 375.53125 L 860.1875 378.21875 L 853.21875 377.5 L 846.96875 381.96875 L 855.53125 388.03125 L 856.78125 392.3125 L 838.9375 402.3125 L 830.71875 406.78125 L 831.4375 409.46875 L 828.03125 411.59375 L 822.6875 414.46875 L 816.0625 411.78125 L 812.15625 415.90625 L 806.4375 415 L 804.8125 418.40625 L 809.65625 417.84375 L 813.21875 421.78125 L 805.1875 423.40625 L 805 429.46875 L 802.3125 435.1875 L 793.9375 434.8125 L 790.1875 429.46875 L 783.5625 429.09375 L 778.75 426.96875 L 776.0625 429.65625 L 770 428.03125 L 768.40625 425.90625 L 773.5625 427.15625 L 779.28125 425.53125 L 783.5625 424.28125 L 784.8125 418.9375 L 781.96875 419.09375 L 782.15625 414.28125 L 784.65625 410.90625 L 794.46875 410.1875 L 796.4375 405.53125 L 798.5625 407.15625 L 802.5 402.6875 L 799.8125 397.6875 L 796.4375 393.9375 L 803.9375 386.59375 L 805.1875 383.21875 L 808.40625 386.59375 L 813.75 384.8125 L 811.0625 381.0625 L 812.15625 377.84375 L 811.25 372.5 L 812.84375 369.46875 L 816.59375 370.53125 L 816.78125 375.1875 L 828.40625 375.71875 L 831.4375 371.4375 L 828.40625 367.6875 L 817.84375 367.5 L 813.9375 369.65625 L 809.09375 366.0625 L 809.09375 358.9375 L 819.46875 349.09375 L 818.9375 345 L 818.9375 338.21875 L 816.59375 336.4375 L 818.5625 334.28125 L 817.84375 330.1875 L 812.3125 333.21875 L 812.84375 337.84375 L 807.5 343.03125 L 803.40625 344.28125 L 804.09375 347.84375 L 800.71875 349.65625 L 801.25 351.96875 L 796.25 354.65625 L 794.8125 361.0625 L 786.96875 361.0625 L 783.40625 356.4375 L 786.0625 352.15625 L 790.1875 352.15625 L 794.09375 349.28125 L 793.5625 345 L 794.28125 337.5 L 790.90625 333.9375 L 787.6875 335.1875 L 780.34375 332.6875 L 773.75 333.21875 L 773.21875 343.03125 L 766.96875 343.5625 L 759.8125 340.34375 L 756.59375 345.90625 L 751.4375 348.21875 L 750.53125 351.25 L 753.9375 353.40625 L 752.5 360.90625 L 746.78125 362.15625 L 744.09375 369.09375 L 740.90625 368.9375 L 738.03125 373.5625 L 733.21875 374.8125 L 728.40625 370.53125 L 723.40625 371.96875 L 723.40625 376.0625 L 718.9375 378.5625 L 714.28125 375.53125 L 710.1875 369.65625 L 703.75 367.84375 L 703.75 365.1875 L 709.09375 363.5625 L 708.9375 360 L 701.78125 357.15625 L 698.40625 359.8125 L 689.28125 358.5625 L 685.53125 362.5 L 689.46875 367.15625 L 685 372.15625 C 685 372.15625 679.27679 375.1875 678.5625 375.1875 C 677.84821 375.1875 681.78125 378.75 681.78125 378.75 L 675.1875 382.3125 L 670.53125 387.15625 L 671.78125 392.5 L 661.96875 396.96875 L 653.03125 395.53125 L 651.59375 389.46875 L 641.78125 388.5625 L 637.3125 384.46875 L 642.84375 381.78125 L 641.0625 377.6875 L 630.34375 376.4375 L 633.03125 380 L 627.84375 382.6875 L 616.96875 380.71875 L 616.59375 375.90625 L 606.78125 369.8125 L 602.5 372.5 L 597.5 370.1875 L 589.28125 370.90625 L 591.59375 377.15625 L 579.8125 375.34375 L 575.1875 371.4375 L 569.28125 377.3125 L 563.40625 376.78125 L 560.90625 379.09375 L 564.65625 382.5 L 561.78125 384.65625 L 555.53125 382.84375 L 550.71875 386.4375 L 555.53125 390.34375 L 547.3125 392.3125 L 533.21875 385.90625 L 540.90625 382.3125 L 547.3125 385 L 553.03125 380.71875 L 549.28125 376.96875 L 549.65625 371.25 L 546.59375 365.71875 L 538.75 364.65625 L 541.0625 360.71875 L 541.78125 354.65625 L 546.96875 353.5625 L 546.78125 344.8125 L 540.53125 341.78125 L 533.03125 340.53125 L 529.46875 336.78125 L 530.71875 334.46875 L 526.0625 332.15625 L 529.09375 329.46875 L 530.1875 324.28125 L 521.4375 320 L 529.28125 312.6875 L 536.25 316.59375 L 539.46875 316.59375 L 542.5 320.34375 L 557.6875 313.5625 L 555.53125 318.03125 L 558.75 319.65625 L 562.5 314.65625 L 558.5625 310.90625 L 561.59375 301.59375 L 565.71875 297.6875 L 560.1875 295.34375 L 555.71875 298.75 L 550.34375 296.4375 L 531.4375 301.59375 L 518.40625 301.0625 L 513.9375 302.3125 L 513.21875 310 L 508.03125 313.9375 L 500.71875 314.46875 L 496.25 317.15625 L 496.96875 321.4375 L 494.65625 322.3125 L 494.46875 329.65625 L 497.3125 332.5 L 495.53125 336.59375 L 494.46875 341.59375 L 491.59375 343.40625 L 493.21875 350.34375 L 495.53125 349.8125 L 502.84375 354.28125 L 498.21875 363.21875 L 500.90625 371.4375 L 508.9375 368.75 L 520.1875 375.71875 L 515.90625 378.5625 L 518.5625 382.15625 L 515.34375 384.65625 L 517.84375 389.28125 L 524.65625 384.46875 L 533.40625 385.1875 L 529.28125 392.15625 L 519.09375 392.6875 L 513.21875 389.65625 L 511.96875 393.03125 L 513.9375 394.65625 L 514.46875 399.8125 L 518.75 402.6875 L 518.40625 416.78125 L 509.09375 419.65625 L 495 420 L 486.78125 421.25 L 479.46875 424.8125 L 459.09375 425.1875 L 458.75 433.75 L 463.03125 437.6875 L 476.25 438.03125 L 484.28125 443.21875 L 490.53125 444.09375 L 502.5 439.8125 L 510.53125 439.8125 L 511.59375 444.46875 L 525.1875 444.09375 L 529.65625 446.4375 L 526.25 449.09375 L 525 454.28125 L 528.5625 457.15625 L 533.21875 454.65625 L 543.9375 456.4375 L 547.15625 454.46875 L 556.4375 458.40625 L 560 453.5625 L 565.34375 454.46875 L 571.25 450.53125 L 593.21875 451.78125 L 599.65625 453.21875 L 619.28125 448.40625 L 647.84375 450.53125 L 653.9375 447.84375 L 664.09375 451.4375 L 667.6875 449.46875 L 678.5625 450.1875 L 690 445 L 714.28125 445.71875 L 716.96875 451.4375 L 724.46875 453.9375 L 736.59375 454.65625 L 726.78125 458.40625 L 729.28125 461.4375 L 744.28125 463.03125 L 749.46875 466.4375 L 777.3125 465.53125 L 774.65625 469.09375 L 801.25 468.75 L 804.46875 463.40625 L 811.59375 462.15625 L 811.96875 452.84375 L 808.21875 449.8125 L 818.40625 441.4375 L 825.34375 444.28125 L 824.8125 446.25 L 829.28125 450.71875 L 845 453.03125 L 855.53125 456.4375 L 878.03125 456.0625 L 884.46875 461.0625 L 905.90625 461.4375 L 910.90625 456.59375 L 919.09375 456.96875 L 912.84375 461.96875 L 955.34375 465.71875 L 966.0625 463.03125 L 975.53125 465.34375 L 1000.5312 465.53125 L 1000.3438 298.8125 L 992.125 302.8125 L 991.5 308.09375 L 984.3125 312.15625 L 979.25 308.21875 L 968.28125 309.375 L 958.15625 302.8125 L 946.9375 299.78125 L 937.84375 300.03125 L 928.25 295.34375 L 933.53125 292.3125 L 945.53125 293.34375 L 949.0625 288.40625 L 942.25 289.65625 L 939.59375 287.15625 L 944.53125 285.75 L 938.09375 283.21875 L 936.71875 288.40625 L 928.625 286 L 923.4375 286.5 L 923.4375 280.71875 L 919.40625 279.5625 L 924.0625 274.40625 L 931.53125 274.28125 L 936.0625 281.59375 L 943.40625 281.21875 L 947.0625 279.6875 L 949.71875 281.84375 L 951.34375 278.4375 L 956.40625 279.8125 L 954.5 284.125 L 960.8125 287.28125 L 961.96875 282.21875 L 972.8125 282.09375 L 972.4375 277.15625 L 980.90625 273.875 L 983.5625 269.96875 L 990.625 263.53125 L 993.65625 256.71875 L 993.03125 251.15625 L 990.875 250.53125 L 994.65625 246.25 L 994.03125 243.09375 L 996.4375 240.1875 L 1000.2812 240.3125 L 1000.1875 150.53125 L 987.3125 146.59375 L 981.4375 145.71875 L 978.9375 139.8125 L 963.40625 140.1875 L 964.8125 136.0625 L 961.96875 132.6875 L 955.1875 130.53125 L 958.9375 128.03125 L 959.65625 124.46875 C 959.65625 124.46875 948.21875 124.62947 955.71875 122.84375 C 963.21875 121.05804 944.28125 121.59375 944.28125 121.59375 L 935.1875 123.21875 L 932.3125 121.4375 L 925.34375 123.03125 L 918.21875 120.71875 L 914.65625 124.46875 L 907.6875 122.84375 L 903.03125 122.5 L 894.28125 124.28125 L 893.75 128.03125 L 896.25 131.59375 L 906.25 134.65625 L 912.6875 140 L 919.8125 143.9375 L 919.65625 153.9375 L 914.46875 158.75 L 907.3125 164.8125 L 903.9375 170.53125 L 901.59375 176.78125 L 906.0625 180.71875 L 903.9375 181.25 L 901.96875 184.8125 L 908.75 187.84375 L 905.34375 192.84375 L 900.90625 193.03125 L 897.3125 188.40625 L 893.21875 185.1875 L 895.34375 180.1875 L 890.53125 178.03125 C 890.53125 178.03125 890.54465 173.20536 890.1875 172.3125 C 889.83036 171.41964 881.25 168.03125 881.25 168.03125 L 881.0625 159.8125 L 878.9375 158.21875 L 873.21875 158.9375 L 871.0625 157.6875 L 876.0625 155 L 875.1875 151.0625 L 878.03125 149.8125 L 877.5 146.0625 L 860.71875 140.71875 L 857.15625 134.46875 L 849.28125 134.28125 L 848.40625 129.8125 L 842.3125 127.3125 L 843.5625 123.5625 L 837.84375 121.78125 L 838.75 114.28125 L 832.5 110 L 833.21875 107.6875 L 814.28125 107.5 L 805.53125 105 L 791.96875 103.75 z M 910.3125 281.96875 L 914.09375 281.96875 L 912.15625 283.40625 L 910.3125 281.96875 z M 599.84375 395.4375 L 614.5625 398.40625 L 622.59375 403.65625 L 628.84375 404.5625 L 620.53125 409.125 L 620.53125 417.5 L 614.65625 423.3125 L 618.03125 429.75 L 601.96875 440.09375 L 582.6875 442.40625 L 563.125 438.65625 L 565.53125 429.75 L 572.15625 429.125 L 567.15625 424.75 L 567.40625 419.03125 C 567.40625 419.03125 565.8125 418.48214 565.8125 418.125 C 565.8125 417.76786 569.28125 411.4375 569.28125 411.4375 L 578.59375 410.09375 L 584.46875 403.5 L 589.125 403.21875 L 599.84375 395.4375 z M 966.09375 439.46875 L 983.75 445.125 L 973.65625 452.46875 L 957.375 451.96875 L 947.15625 442.75 L 948.15625 442.34375 L 966.09375 439.46875 z "
       id="path3842" />
    <path
       style="fill:#000000;stroke:#000000;stroke-width:2;stroke-linecap:butt;stroke-linejoin:miter;stroke-opacity:1;fill-opacity:0.04000000000000000;stroke-miterlimit:4;stroke-dasharray:none"
       d="m 737.8125,231.38393 c 0,0 0.13393,-2.00893 -0.53571,-2.09822 -0.66964,-0.0893 -4.33036,-0.35714 -4.33036,-0.35714 l -2.5,-5.71429 -4.6875,-0.0893 c 0,0 0.0893,1.83036 -0.0893,1.78571 -0.17858,-0.0446 -5.40179,-0.13393 -5.22322,-0.13393 0.17857,0 0.26786,2.63393 0.26786,2.63393 l -3.79464,2.85715 1.60714,3.21428 0.75893,3.97322 6.47321,0.89285 3.88393,-2.23214 2.85714,-5.66964 z"
       id="path3844"
       inkscape:connector-curvature="0" />
    <path
       style="fill:#000000;stroke:#000000;stroke-width:2;stroke-linecap:butt;stroke-linejoin:miter;stroke-opacity:1;fill-opacity:0.04000000000000000;stroke-miterlimit:4;stroke-dasharray:none"
       d="m 708.30357,238.30357 -29.0625,-0.625 -1.83035,-3.48214 3.57143,-1.47322 5.625,1.16072 3.92857,-3.25893 7.63393,0 5.22321,3.34821 5.13393,1.38393 z"
       id="path3846"
       inkscape:connector-curvature="0" />
    <path
       style="fill:none;stroke:#000000;stroke-width:2;stroke-linecap:butt;stroke-linejoin:miter;stroke-opacity:1;stroke-miterlimit:4;stroke-dasharray:none"
       d="m 1000.1786,119.01786 c -0.89288,-0.26786 -14.5536,0 -14.5536,0 l 3.83929,4.19642 11.07141,-1.42857"
       id="path3848"
       inkscape:connector-curvature="0" />
    <path
       style="fill:none;stroke:#000000;stroke-width:2;stroke-linecap:butt;stroke-linejoin:miter;stroke-opacity:1;stroke-miterlimit:4;stroke-dasharray:none"
       d="m 990.98215,112.67857 c 0.26785,-0.35714 2.41071,-5.26786 2.41071,-5.26786 l -5.625,-4.91071 0,-5.625001 -12.67857,0.446429 -0.53572,3.571432 -9.375,-1.785718 3.21429,4.374998 6.25,3.66072 -3.48214,3.03571 -3.48215,2.67857 8.125,3.21429 9.55358,1.25 -1.69643,-6.60715 z"
       id="path3850"
       inkscape:connector-curvature="0" />
    <path
       style="fill:#000000;stroke:#000000;stroke-width:2;stroke-linecap:butt;stroke-linejoin:miter;stroke-opacity:1;fill-opacity:0.04000000000000000;stroke-miterlimit:4;stroke-dasharray:none"
       d="m 669.19643,61.42857 c 0,0 19.55357,-2.5 19.73214,-2.946428 0.17857,-0.446429 2.67857,-4.821429 2.67857,-4.821429 0,0 11.33929,1.25 11.78572,1.25 0.44643,0 4.46428,-1.875 4.46428,-1.875 l 2.32143,1.875 -0.89285,5.535714 10.89285,0.803572 1.16072,2.589286 -4.28572,3.303571 0.71429,1.875 7.76786,3.125 4.10714,4.642857 -13.48214,5.357143 -1.07143,-6.785714 -25,3.214285 L 668.75,60.982142 z"
       id="path3852"
       inkscape:connector-curvature="0" />
    <path
       style="fill:none;stroke:#000000;stroke-width:2;stroke-linecap:butt;stroke-linejoin:miter;stroke-opacity:1;stroke-miterlimit:4;stroke-dasharray:none"
       d="m 599.64286,395.44643 14.73214,2.94643 8.03572,5.26785 6.25,0.89286 -8.30358,4.55357 0,8.39286 -5.89285,5.80357 3.39285,6.42857 -16.07142,10.35715 -19.28572,2.32142 -19.55357,-3.75 2.41071,-8.92857 6.60715,-0.625 -5,-4.375 0.26785,-5.71428 c 0,0 -1.60714,-0.53572 -1.60714,-0.89286 0,-0.35714 3.48214,-6.69643 3.48214,-6.69643 l 9.28572,-1.33928 5.89286,-6.60715 4.64285,-0.26785 z"
       id="path3854"
       inkscape:connector-curvature="0" />
    <path
       style="fill:none;stroke:#000000;stroke-width:2;stroke-linecap:butt;stroke-linejoin:miter;stroke-opacity:1;stroke-miterlimit:4;stroke-dasharray:none"
       d="m 948.15443,442.16877 17.93021,-2.90419 17.67767,5.68211 -10.10152,7.3236 -16.28871,-0.50507 -10.2278,-9.21765 z"
       id="path3856"
       inkscape:connector-curvature="0" />
    <path
       style="fill:none;stroke:#000000;stroke-width:2;stroke-linecap:butt;stroke-linejoin:miter;stroke-opacity:1;stroke-miterlimit:4;stroke-dasharray:none"
       d="m 1000.4298,298.72711 -8.33373,4.04061 -0.63135,5.3033 -7.19733,4.04061 -5.05076,-3.91434 -10.98541,1.13642 -10.10153,-6.56599 -11.23795,-3.03046 -9.09137,0.25254 -9.59645,-4.67196 5.3033,-3.03046 11.99556,1.01016 3.53554,-4.9245 -6.81853,1.26269 -2.65165,-2.52538 4.92449,-1.38896 -6.43972,-2.52538 -1.38896,5.17703 -8.08122,-2.39911 -5.17703,0.50508 0,-5.80838 -4.04061,-1.13642 4.67195,-5.17704 7.44988,-0.12626 4.54568,7.3236 7.32361,-0.37881 3.6618,-1.51522 2.65165,2.14657 1.6415,-3.40926 5.05076,1.38895 -1.89403,4.29315 6.31345,3.15673 1.13642,-5.05076 10.85914,-0.12627 -0.3788,-4.9245 8.46002,-3.28299 2.65165,-3.91434 7.07107,-6.43973 3.03046,-6.81852 -0.63135,-5.55584 -2.14657,-0.63135 3.78807,-4.29315 -0.63134,-3.15672 2.39911,-2.90419 4.16688,0.12627"
       id="path3858"
       inkscape:connector-curvature="0" />
  </g>
</svg>
